<svg width="48" height="48" viewBox="0 0 48 48" fill="none" xmlns="http://www.w3.org/2000/svg">
<g id="chick-svgrepo-com 1" clip-path="url(#clip0_2901_294)">
<g id="Group">
<path id="Vector" d="M45.7269 16.3588L45.7018 16.2268L45.648 16.1032C45.5752 15.9333 45.4651 15.642 45.3255 15.2937C44.9433 14.35 44.3341 12.9626 43.2053 11.7004C43.2069 11.6359 43.2091 11.5729 43.2091 11.5054C43.2099 8.33222 41.9203 5.448 39.8403 3.36956C37.7618 1.28953 34.877 -0.000749673 31.7038 3.26786e-07C28.5306 -0.000749673 25.6466 1.28953 23.5679 3.36956C21.4887 5.44809 20.1975 8.33222 20.1983 11.5054C20.1975 12.5552 20.3219 13.4655 20.4934 14.3083C20.6655 15.1519 20.878 15.9263 21.0706 16.7623C21.1405 17.0679 21.2277 17.3327 21.3133 17.5619C19.0392 17.3404 16.9751 17.2312 15.118 17.2312C13.1085 17.2312 11.3403 17.3571 9.79888 17.609C8.64275 17.7979 7.61338 18.0573 6.70457 18.3948C5.34594 18.9016 4.23922 19.5873 3.44872 20.5135C3.05572 20.9755 2.7485 21.4966 2.546 22.0565C2.34275 22.6163 2.24413 23.211 2.24488 23.8148C2.24563 24.8526 2.52406 25.91 3.0156 26.9879C3.50797 28.0666 4.2171 29.1734 5.13125 30.3257C5.77072 31.1305 6.23582 31.7253 6.63107 32.3101C7.02772 32.8965 7.36682 33.4822 7.77041 34.3219C9.03266 36.9496 10.8025 39.2406 13.0759 40.8859C14.4634 41.8926 16.0427 42.6473 17.7792 43.0812L15.4321 48H22.5356V45.8426H18.8527L19.9944 43.45C20.4154 43.4857 20.8424 43.5062 21.2772 43.5054C23.5931 43.5062 25.7914 42.9919 27.7661 42.077L30.7427 46.7544L36.5573 44.7032L35.8396 42.6686L31.6424 44.1494L29.6588 41.0339C30.5812 40.4377 31.4383 39.7489 32.2092 38.9774C35.0061 36.1835 36.7387 32.3102 36.7387 28.0454H36.7379C36.7432 27.937 36.747 27.8286 36.747 27.7178C36.7448 26.9463 36.6469 26.0716 36.5543 25.1886C36.4618 24.3102 36.3745 23.4302 36.3753 22.7672C36.3738 22.4198 36.4033 22.1406 36.4367 21.9881C38.0753 21.247 39.5014 20.1364 40.6195 18.7634C41.7218 18.7285 42.6821 18.6466 43.4581 18.5039C43.688 18.4607 43.9034 18.413 44.1083 18.3546C44.417 18.2635 44.6976 18.1657 45.0049 17.9654C45.1581 17.8614 45.3235 17.7279 45.4775 17.5118C45.5533 17.404 45.6246 17.2736 45.6748 17.1249C45.7263 16.9762 45.7558 16.8093 45.7552 16.6448C45.755 16.5446 45.7444 16.4483 45.7269 16.3588ZM41.9446 16.1669C41.3772 16.2185 40.7097 16.2511 39.9753 16.2609L39.3457 16.27L38.9755 16.7797C38.0173 18.099 36.715 19.1481 35.2023 19.789C34.8458 19.9377 34.5628 20.201 34.3854 20.4604C34.248 20.6576 34.1578 20.8556 34.0895 21.0475C33.9886 21.3365 33.9362 21.6164 33.9029 21.9001C33.8711 22.1839 33.8589 22.4721 33.8589 22.7672C33.8604 23.6282 33.9583 24.5643 34.0516 25.4511C34.1449 26.3325 34.2314 27.1723 34.2299 27.7178C34.2299 27.8125 34.2276 27.8975 34.2231 27.9688L34.2216 28.0075V28.0454C34.2208 31.6229 32.7742 34.8515 30.4294 37.1978C28.0831 39.5418 24.8553 40.9884 21.2772 40.9884C18.6433 40.9854 16.4282 40.1994 14.5508 38.8462C12.6786 37.493 11.1523 35.5493 10.0387 33.2319C9.97494 33.0984 9.91119 32.9771 9.84903 32.8519C11.0271 33.2479 12.102 33.5186 13.0557 33.6962C14.6843 34.0004 15.9701 34.0444 16.8258 34.0444C17.1672 34.0444 17.441 34.0384 17.6223 34.0384C18.1184 34.0384 18.5212 33.6355 18.5212 33.1387C18.5212 32.6418 18.1183 32.2398 17.6223 32.2398C17.403 32.2398 17.1444 32.2466 16.8258 32.2466C16.0339 32.2466 14.88 32.2072 13.3848 31.9288C11.983 31.6671 10.2793 31.1891 8.31519 30.3327C7.95716 29.8426 7.56575 29.3458 7.10225 28.7609C6.28372 27.73 5.68597 26.7802 5.30516 25.9444C4.92285 25.1068 4.76056 24.3907 4.76206 23.815C4.76666 23.2149 4.91535 22.7583 5.23466 22.3107C5.47822 21.9777 5.83625 21.647 6.35132 21.3352C7.11903 20.8687 8.23794 20.4597 9.70344 20.1813C11.1691 19.9006 12.9767 19.7474 15.1182 19.7474C17.0398 19.7474 19.2283 19.8703 21.6853 20.1283L21.8758 20.148L22.0638 20.1108C22.2982 20.0638 22.5099 20.0123 22.7116 19.9462C22.8649 19.8961 23.0143 19.8376 23.1668 19.7572C23.2813 19.6982 23.3982 19.6245 23.515 19.529C23.6894 19.3886 23.8639 19.1861 23.9762 18.9448C24.0915 18.7044 24.1354 18.4449 24.1332 18.2332C24.1302 17.9214 24.0627 17.703 24.0042 17.5224C23.9116 17.2554 23.8168 17.0552 23.7341 16.8466C23.6506 16.6395 23.5771 16.4317 23.5225 16.1964C23.3154 15.2998 23.1083 14.5413 22.9603 13.8077C22.8117 13.0734 22.7161 12.3626 22.7154 11.5055C22.7161 9.01884 23.7198 6.78094 25.3477 5.14997C26.9787 3.52134 29.218 2.51775 31.7038 2.517C34.1897 2.51775 36.4298 3.52134 38.06 5.14997C39.6887 6.78094 40.6923 9.01875 40.6931 11.5055C40.6931 11.6898 40.6832 11.8854 40.6695 12.0964L40.6339 12.6722L41.0466 13.0758C41.7005 13.7138 42.1792 14.4784 42.5365 15.202C42.6807 15.4964 42.8012 15.7762 42.9112 16.0433C42.6418 16.0902 42.3171 16.1335 41.9446 16.1669Z" fill="#ECEDEE"/>
<path id="Vector_2" d="M33.9212 10.3668C33.127 10.3668 32.4836 11.0108 32.4836 11.8057C32.4836 12.5992 33.127 13.244 33.9212 13.244C34.7155 13.244 35.3595 12.5992 35.3595 11.8057C35.3595 11.0108 34.7155 10.3668 33.9212 10.3668Z" fill="#ECEDEE"/>
</g>
</g>
<defs>
<clipPath id="clip0_2901_294">
<rect width="48" height="48" fill="white"/>
</clipPath>
</defs>
</svg>
