<svg width="605" height="480" viewBox="0 0 605 480" fill="none" xmlns="http://www.w3.org/2000/svg">
<g clip-path="url(#clip0_2901_319)" filter="url(#filter0_d_2901_319)">
<path d="M406.36 112.427H403.77V41.5322C403.77 36.1437 402.708 30.8081 400.645 25.8298C398.581 20.8516 395.557 16.3282 391.744 12.5181C387.931 8.70786 383.404 5.68546 378.422 3.6234C373.44 1.56134 368.101 0.500005 362.709 0.5H212.399C201.509 0.499989 191.064 4.82299 183.364 12.518C175.663 20.213 171.337 30.6496 171.337 41.532V430.468C171.337 441.35 175.663 451.787 183.364 459.482C191.064 467.177 201.508 471.5 212.399 471.5H362.708C373.599 471.5 384.043 467.177 391.743 459.482C399.444 451.787 403.77 441.35 403.77 430.468V162.891H406.36V112.427Z" fill="#3F3D56"/>
<path d="M395.032 41.8188V430.186C395.032 430.754 395.017 431.314 394.982 431.875C394.552 439.698 391.138 447.059 385.443 452.444C379.747 457.829 372.203 460.829 364.363 460.826H213.333C205.473 460.828 197.913 457.813 192.215 452.404C186.516 446.995 183.115 439.605 182.714 431.761C182.685 431.243 182.671 430.718 182.671 430.186V41.8188C182.67 33.6918 185.9 25.8973 191.65 20.1499C197.4 14.4026 205.2 11.1732 213.333 11.1721H231.66C230.758 13.3825 230.413 15.7807 230.657 18.1555C230.9 20.5304 231.724 22.809 233.056 24.7906C234.388 26.7723 236.188 28.3963 238.296 29.5195C240.404 30.6427 242.756 31.2308 245.145 31.2319H331.258C333.647 31.2306 335.999 30.6424 338.107 29.5191C340.215 28.3958 342.014 26.7719 343.346 24.7903C344.678 22.8086 345.502 20.5301 345.746 18.1554C345.989 15.7806 345.645 13.3825 344.743 11.1721H364.363C372.496 11.1729 380.297 14.402 386.048 20.1492C391.799 25.8964 395.031 33.691 395.032 41.8188Z" fill="white"/>
<path d="M392.242 334.712H185.455C184.729 334.711 184.032 334.423 183.518 333.909C183.005 333.396 182.716 332.7 182.715 331.974V78.4605C182.716 77.7347 183.005 77.0388 183.518 76.5255C184.032 76.0123 184.729 75.7236 185.455 75.7228H392.242C392.969 75.7236 393.665 76.0123 394.179 76.5255C394.693 77.0388 394.982 77.7347 394.982 78.4605V331.974C394.982 332.7 394.693 333.396 394.179 333.909C393.665 334.423 392.969 334.711 392.242 334.712Z" fill="#F0F0F0"/>
<path d="M377.066 93.4124H201.055C200.328 93.4128 199.631 93.7015 199.117 94.2151C198.603 94.7286 198.314 95.4251 198.314 96.1513V279.329C198.316 280.054 198.605 280.749 199.119 281.261C199.633 281.774 200.329 282.061 201.055 282.061H377.066C377.792 282.061 378.488 281.774 379.002 281.261C379.515 280.749 379.805 280.055 379.807 279.329V96.1513C379.807 95.425 379.518 94.7286 379.004 94.215C378.49 93.7015 377.793 93.4128 377.066 93.4124Z" fill="white"/>
<path d="M198.002 66.4909C201.924 66.4909 205.103 63.314 205.103 59.3951C205.103 55.4762 201.924 52.2993 198.002 52.2993C194.08 52.2993 190.901 55.4762 190.901 59.3951C190.901 63.314 194.08 66.4909 198.002 66.4909Z" fill="#3E63DD"/>
<path d="M231.777 291.094C219.652 271.579 223.83 246.647 225.871 223.768C228.92 189.441 226.169 154.846 217.733 121.43C227.781 132.642 234.41 146.491 236.84 161.343C238.842 173.729 237.853 186.471 240.12 198.81C244.982 225.269 264.563 249.132 261.532 275.862C260.862 281.771 258.609 288.125 253.36 290.925C247.434 294.086 240.201 291.572 233.985 289.028" fill="#F0F0F0"/>
<path d="M211.314 299.194C209.986 297.86 208.183 297.108 206.3 297.104C204.417 297.099 202.61 297.842 201.276 299.169C199.941 300.495 199.189 302.298 199.184 304.179C199.179 306.06 199.923 307.866 201.251 309.2L201.275 309.224L211.314 319.254L221.353 309.224C222.678 307.893 223.421 306.09 223.418 304.212C223.416 302.334 222.668 300.534 221.339 299.206C220.01 297.878 218.208 297.131 216.329 297.129C214.45 297.127 212.646 297.869 211.314 299.194Z" fill="#3E63DD"/>
<path d="M242.558 299.194C241.23 297.86 239.427 297.108 237.544 297.104C235.662 297.099 233.854 297.842 232.52 299.169C231.185 300.495 230.433 302.298 230.428 304.179C230.424 306.06 231.167 307.866 232.495 309.2L232.519 309.224L242.558 319.254L252.597 309.224C253.922 307.893 254.665 306.09 254.663 304.212C254.66 302.334 253.912 300.534 252.583 299.206C251.254 297.878 249.453 297.131 247.573 297.129C245.694 297.127 243.89 297.869 242.558 299.194Z" fill="#3E63DD"/>
<path d="M273.802 299.194C272.474 297.86 270.671 297.108 268.788 297.104C266.906 297.099 265.098 297.842 263.764 299.169C262.429 300.495 261.677 302.298 261.672 304.179C261.668 306.06 262.411 307.866 263.739 309.2L263.763 309.224L273.802 319.254L283.841 309.224C285.167 307.893 285.909 306.09 285.907 304.212C285.904 302.334 285.156 300.534 283.827 299.206C282.498 297.878 280.697 297.131 278.817 297.129C276.938 297.127 275.134 297.869 273.802 299.194Z" fill="#3E63DD"/>
<path d="M328.991 64.9599H228.858C228.138 64.9607 227.424 64.8197 226.759 64.5449C226.093 64.2701 225.489 63.8669 224.979 63.3584C224.47 62.8499 224.066 62.246 223.79 61.5813C223.514 60.9166 223.372 60.2041 223.372 59.4845C223.372 58.7649 223.514 58.0524 223.79 57.3877C224.066 56.723 224.47 56.1191 224.979 55.6106C225.489 55.1021 226.093 54.6989 226.759 54.4241C227.424 54.1493 228.138 54.0083 228.858 54.0091H328.991C329.711 54.0083 330.425 54.1493 331.09 54.4241C331.756 54.6989 332.36 55.1021 332.87 55.6106C333.379 56.1191 333.784 56.723 334.059 57.3877C334.335 58.0524 334.477 58.7649 334.477 59.4845C334.477 60.2041 334.335 60.9166 334.059 61.5813C333.784 62.246 333.379 62.8499 332.87 63.3584C332.36 63.8669 331.756 64.2701 331.09 64.5449C330.425 64.8197 329.711 64.9607 328.991 64.9599Z" fill="#3E63DD"/>
<path d="M392.241 382.261H185.454C184.727 382.261 184.031 382.55 183.517 383.064C183.003 383.577 182.714 384.274 182.713 385V431.761C183.115 439.605 186.516 446.995 192.214 452.404C197.913 457.813 205.473 460.828 213.332 460.826H364.363C372.203 460.829 379.747 457.829 385.442 452.444C391.138 447.059 394.551 439.698 394.982 431.875V385C394.981 384.274 394.692 383.577 394.178 383.064C393.664 382.55 392.967 382.261 392.241 382.261Z" fill="#F0F0F0"/>
<path d="M377.066 399.951H201.055C200.328 399.951 199.631 400.24 199.117 400.754C198.603 401.267 198.314 401.963 198.314 402.69V456.902C202.898 459.482 208.071 460.834 213.332 460.826H364.363C369.79 460.833 375.121 459.395 379.807 456.66V402.69C379.807 401.963 379.518 401.267 379.004 400.753C378.49 400.24 377.793 399.951 377.066 399.951Z" fill="white"/>
<path d="M198.002 373.029C201.924 373.029 205.103 369.852 205.103 365.934C205.103 362.015 201.924 358.838 198.002 358.838C194.08 358.838 190.901 362.015 190.901 365.934C190.901 369.852 194.08 373.029 198.002 373.029Z" fill="#E4E4E4"/>
<path d="M328.991 371.498H228.858C228.138 371.499 227.424 371.358 226.759 371.083C226.093 370.809 225.489 370.405 224.979 369.897C224.47 369.388 224.066 368.784 223.79 368.12C223.514 367.455 223.372 366.743 223.372 366.023C223.372 365.303 223.514 364.591 223.79 363.926C224.066 363.261 224.47 362.658 224.979 362.149C225.489 361.64 226.093 361.237 226.759 360.963C227.424 360.688 228.138 360.547 228.858 360.548H328.991C329.711 360.547 330.425 360.688 331.09 360.963C331.756 361.237 332.36 361.64 332.87 362.149C333.379 362.658 333.784 363.261 334.059 363.926C334.335 364.591 334.477 365.303 334.477 366.023C334.477 366.743 334.335 367.455 334.059 368.12C333.784 368.784 333.379 369.388 332.87 369.897C332.36 370.405 331.756 370.809 331.09 371.083C330.425 371.358 329.711 371.499 328.991 371.498Z" fill="#E4E4E4"/>
<path d="M272.391 460.826H220.363C225.66 450.409 235.438 441.922 246.963 441.475C248.7 441.411 250.438 441.539 252.146 441.858C252.863 441.986 253.567 442.157 254.27 442.341C258.69 443.477 262.716 445.8 265.91 449.058C269.104 452.317 271.345 456.386 272.391 460.826Z" fill="#F2F2F2"/>
<path d="M355.607 460.826H284.959C286.045 457.586 286.967 454.294 287.722 450.962C290.896 437.26 294.127 421.877 305.836 414.086C312.355 409.743 320.287 409.033 327.806 410.949C328.034 411.006 328.268 411.07 328.495 411.141C337.365 413.599 344.979 419.314 349.812 427.142C355.799 437.175 357.134 449.11 355.607 460.826Z" fill="#F2F2F2"/>
<path d="M255.001 452.46C254.967 455.263 254.717 458.06 254.255 460.826H252.224C253.292 454.546 253.265 448.129 252.146 441.859C252.863 441.986 253.566 442.157 254.269 442.341C254.807 445.686 255.052 449.072 255.001 452.46Z" fill="white"/>
<path d="M328.758 411.794C328.765 413.326 328.758 414.866 328.716 416.406C328.402 429.207 326.494 441.919 323.035 454.248C322.425 456.448 321.764 458.64 321.054 460.826H318.966C320.244 456.937 321.359 452.999 322.325 449.054C325.312 436.944 326.8 424.514 326.756 412.042C326.757 411.76 326.867 411.489 327.063 411.286C327.258 411.082 327.525 410.962 327.807 410.949C328.053 410.922 328.299 410.991 328.496 411.141C328.587 411.222 328.659 411.323 328.705 411.436C328.75 411.549 328.769 411.672 328.758 411.794Z" fill="white"/>
<path d="M366.261 424.875C368.614 424.875 370.522 422.969 370.522 420.618C370.522 418.266 368.614 416.36 366.261 416.36C363.908 416.36 362 418.266 362 420.618C362 422.969 363.908 424.875 366.261 424.875Z" fill="#F2F2F2"/>
<path d="M264.136 114.173C266.489 114.173 268.396 112.267 268.396 109.916C268.396 107.564 266.489 105.658 264.136 105.658C261.783 105.658 259.875 107.564 259.875 109.916C259.875 112.267 261.783 114.173 264.136 114.173Z" fill="#3E63DD"/>
<path d="M342.956 139.008C345.309 139.008 347.216 137.102 347.216 134.751C347.216 132.4 345.309 130.493 342.956 130.493C340.603 130.493 338.695 132.4 338.695 134.751C338.695 137.102 340.603 139.008 342.956 139.008Z" fill="#E4E4E4"/>
<path d="M340.826 225.577C343.179 225.577 345.087 223.671 345.087 221.32C345.087 218.968 343.179 217.062 340.826 217.062C338.473 217.062 336.565 218.968 336.565 221.32C336.565 223.671 338.473 225.577 340.826 225.577Z" fill="#E4E4E4"/>
<path d="M321.97 266.152L319.087 256.928C318.591 254.781 317.963 252.667 317.205 250.598C313.953 240.778 306.809 220.974 298.394 200.282L288.496 190.391L285.755 188.603L283.163 186.921L282.048 187.95L271.418 197.756L271.34 198.402L264.395 257.382C264.395 257.382 264.374 257.545 264.338 257.865C264.26 258.553 264.097 259.958 263.884 261.966C263.479 265.741 262.826 272.333 262.18 280.642H326.493L321.97 266.152Z" fill="#3F3D56"/>
<path opacity="0.2" d="M276.394 224.203L273.695 241.031L291.96 248.56L276.394 224.203Z" fill="black"/>
<path d="M309.096 148.909C305.777 145.286 301.44 142.751 296.653 141.635C291.867 140.518 286.855 140.873 282.274 142.653C277.693 144.433 273.757 147.554 270.982 151.608C268.208 155.662 266.723 160.459 266.725 165.371V183.557C266.725 184.427 267.071 185.26 267.686 185.875C268.301 186.49 269.135 186.835 270.005 186.836H312.234C313.103 186.834 313.936 186.488 314.55 185.873C315.163 185.258 315.508 184.426 315.508 183.557V165.371C315.51 159.274 313.222 153.399 309.096 148.909Z" fill="#2F2E41"/>
<path d="M295.78 185.737C305.656 185.737 313.663 177.736 313.663 167.867C313.663 157.998 305.656 149.998 295.78 149.998C285.904 149.998 277.898 157.998 277.898 167.867C277.898 177.736 285.904 185.737 295.78 185.737Z" fill="#FFB8B8"/>
<path d="M309.096 148.909C306.835 148.006 304.422 147.543 301.988 147.546H298.345C295.278 147.547 292.255 148.279 289.527 149.682C286.8 151.085 284.448 153.119 282.666 155.614C282.545 155.77 282.439 155.933 282.332 156.089C280.189 159.26 279.046 162.999 279.052 166.825V167.187H286.742L289.369 159.843L289.895 167.187H293.871L295.192 163.483L295.455 167.187C303.771 170.258 312.398 170.062 321.281 167.187V166.825C321.277 162.964 320.113 159.192 317.941 155.998C315.769 152.804 312.688 150.334 309.096 148.909Z" fill="#2F2E41"/>
<path d="M298.203 185.573C298.187 185.531 298.168 185.491 298.146 185.452C295.739 180.868 292.721 173.85 292.55 167.187C292.451 163.207 293.374 159.347 296.058 156.217L296.57 155.614H275.757V186.843L282.048 187.95L285.755 188.603L294.667 190.178C294.859 190.212 295.054 190.229 295.249 190.227C295.765 190.227 296.273 190.105 296.732 189.87C297.191 189.636 297.588 189.296 297.89 188.879C298.328 188.29 298.549 187.568 298.515 186.836C298.502 186.397 298.396 185.967 298.203 185.573Z" fill="#2F2E41"/>
<path opacity="0.2" d="M264.83 256.562C269.589 262.068 276.044 265.839 283.182 267.28C290.319 268.722 297.733 267.753 304.259 264.525L308.151 262.601L264.83 256.562Z" fill="black"/>
<path d="M466.499 310.368C466.557 309.141 466.883 307.942 467.455 306.855C468.027 305.768 468.831 304.819 469.81 304.076C470.788 303.333 471.918 302.814 473.119 302.554C474.32 302.295 475.564 302.301 476.762 302.574L487.879 286.918L499.048 291.349L483.038 313.238C482.446 315.219 481.147 316.914 479.388 318.003C477.629 319.091 475.531 319.497 473.492 319.143C471.454 318.79 469.616 317.701 468.327 316.083C467.038 314.466 466.387 312.432 466.499 310.368Z" fill="#A0616A"/>
<path d="M478.694 296.904L498.46 263.684L490.407 242.225L501.375 212.997L501.779 213.171C502.044 213.284 508.277 216.063 509.2 226.015L521.804 265.599L488.165 309.207L478.694 296.904Z" fill="#3F3D56"/>
<path d="M371.343 174.778C372.563 174.931 373.734 175.349 374.774 176.003C375.814 176.657 376.698 177.531 377.364 178.563C378.03 179.596 378.461 180.761 378.627 181.978C378.793 183.195 378.69 184.434 378.325 185.606L393.086 197.893L387.802 208.677L367.201 191.034C365.27 190.291 363.679 188.866 362.729 187.03C361.779 185.193 361.536 183.071 362.047 181.068C362.557 179.064 363.786 177.317 365.499 176.158C367.212 174.999 369.292 174.508 371.343 174.778Z" fill="#A0616A"/>
<path d="M383.834 187.969L415.45 210.23L437.483 203.866L465.796 217.053L465.592 217.443C465.458 217.698 462.203 223.692 452.203 223.843L411.734 233.34L370.826 196.454L383.834 187.969Z" fill="#3F3D56"/>
<path d="M441.686 458.673L430.694 458.673L425.465 416.309L441.687 416.309L441.686 458.673Z" fill="#A0616A"/>
<path d="M419.522 455.535H444.04V468.871H409.497V465.553C409.497 462.896 410.553 460.348 412.433 458.469C414.313 456.59 416.863 455.535 419.522 455.535Z" fill="#2F2E41"/>
<path d="M485.615 458.673L474.624 458.673L469.395 416.309L485.617 416.309L485.615 458.673Z" fill="#A0616A"/>
<path d="M463.452 455.535H487.97V468.871H453.426V465.553C453.426 462.896 454.483 460.348 456.363 458.469C458.243 456.59 460.793 455.535 463.452 455.535Z" fill="#2F2E41"/>
<path d="M489.524 304.04L488.628 366.752L487.731 449.172L468.007 447.381L458.145 333.604L445.595 447.381H425.232L423.181 332.708L430.353 307.624L489.524 304.04Z" fill="#2F2E41"/>
<path d="M428.388 308.006L425.383 307.876L439.34 231.047L433.625 207.825C433.328 206.616 433.485 205.341 434.066 204.241C434.647 203.141 435.611 202.291 436.777 201.854L447.059 198.002L450.691 188.019L479.351 191.105L480.056 198.907C483.161 199.902 508.736 208.413 506.971 218.111C505.23 227.683 494.946 257.798 494.424 259.324L492.623 302.513L492.402 302.624C492.135 302.757 472.381 312.463 450.92 312.461C443.363 312.461 435.59 311.257 428.388 308.006Z" fill="#3F3D56"/>
<path d="M482.004 172.35C487.47 162.357 483.795 149.828 473.796 144.366C463.796 138.904 451.258 142.576 445.791 152.569C440.325 162.561 444 175.09 454 180.553C464 186.015 476.538 182.343 482.004 172.35Z" fill="#A0616A"/>
<path d="M480.612 182.42C476.68 186.606 469.376 184.359 468.864 178.64C468.824 178.196 468.827 177.75 468.873 177.306C469.137 174.773 470.602 172.473 470.251 169.799C470.172 169.133 469.923 168.499 469.53 167.956C466.396 163.762 459.04 169.831 456.082 166.035C454.269 163.707 456.401 160.043 455.009 157.441C453.172 154.007 447.732 155.701 444.32 153.821C440.524 151.729 440.751 145.909 443.25 142.369C446.297 138.052 451.64 135.748 456.917 135.416C462.193 135.084 467.433 136.51 472.359 138.428C477.956 140.608 483.506 143.62 486.95 148.537C491.138 154.518 491.542 162.558 489.447 169.551C488.172 173.805 483.824 179.002 480.612 182.42Z" fill="#2F2E41"/>
<path d="M330.908 264.493H319.85C319.495 264.494 319.153 264.362 318.89 264.124C318.627 263.886 318.463 263.558 318.429 263.205L316.216 240.533H334.543L332.329 263.205C332.296 263.558 332.131 263.886 331.869 264.124C331.606 264.362 331.263 264.494 330.908 264.493Z" fill="#3E63DD"/>
<path d="M334.513 243.385H316.245C315.867 243.385 315.504 243.235 315.236 242.967C314.969 242.7 314.818 242.337 314.818 241.959V238.537C314.818 238.158 314.969 237.796 315.236 237.529C315.504 237.261 315.867 237.111 316.245 237.11H334.513C334.892 237.111 335.254 237.261 335.522 237.529C335.789 237.796 335.94 238.158 335.94 238.537V241.959C335.94 242.337 335.789 242.7 335.522 242.967C335.254 243.235 334.892 243.385 334.513 243.385Z" fill="#3F3D56"/>
<path d="M327.056 252.448C326.258 251.553 325.274 250.843 324.172 250.368C323.07 249.894 321.877 249.667 320.678 249.703C319.479 249.74 318.302 250.038 317.231 250.578C316.16 251.118 315.22 251.886 314.478 252.828L296.422 247.763L290.666 257.976L316.264 264.771C317.93 265.912 319.958 266.403 321.962 266.15C323.966 265.897 325.807 264.918 327.137 263.399C328.468 261.88 329.194 259.927 329.179 257.908C329.164 255.89 328.408 253.947 327.056 252.448Z" fill="#FFB8B8"/>
<path d="M297.699 246.909L289.128 241.452L286.685 240.302L275.643 235.101C275.97 233.98 276.907 230.631 277.795 226.388C279.868 216.461 281.637 201.637 274.5 199.04C273.488 198.658 272.421 198.443 271.34 198.402C269.894 198.349 268.459 198.677 267.179 199.353C261.832 202.141 259.709 209.989 259.631 210.28L253.02 228.41C252.409 229.247 246.125 237.947 247.14 244.39C247.268 245.315 247.586 246.204 248.075 247C248.564 247.797 249.213 248.483 249.98 249.016C254.556 252.293 259.354 255.25 264.338 257.865C265.496 258.461 266.627 259.012 267.733 259.518C273.925 262.342 279.385 263.782 283.972 263.782C285.472 263.794 286.968 263.62 288.425 263.264L306.241 262.86L306.355 262.349L306.397 262.15L308.762 251.223L309.429 248.129L297.699 246.909Z" fill="#3F3D56"/>
<path d="M483.319 367.584C483.319 367.584 486.378 350.341 473.584 358.128C473.584 358.128 472.472 340.606 461.625 352.844C461.625 352.844 455.784 341.997 449.387 352.009C440.766 365.359 434.925 386.497 440.487 421.541L451.056 414.588C458.566 392.616 485.544 390.113 489.159 378.153C491.662 369.809 483.319 367.584 483.319 367.584ZM378.466 348.95L350.931 358.963C357.05 325.588 397.1 327.813 397.1 327.813C397.1 327.813 378.187 336.713 378.466 348.95Z" fill="#7B93FF"/>
<path d="M382.916 355.069L353.712 358.962C367.062 327.813 405.722 338.659 405.722 338.659C405.722 338.659 385.419 343.109 382.916 355.069Z" fill="#7B93FF"/>
<path d="M322.562 380.656L337.581 376.762V386.775C337.581 386.497 328.403 385.106 322.562 380.656ZM337.581 376.484L322.562 368.975C332.575 361.187 343.978 363.691 343.978 363.691L337.581 376.484Z" fill="#FFD93B"/>
<path d="M411.006 447.406H405.166V469.378C404.331 469.656 399.325 469.1 397.1 469.1C392.094 469.1 387.922 472.716 387.922 472.716H411.006V447.406ZM386.531 447.406H380.691V469.378C379.856 469.656 374.85 469.1 372.625 469.1C367.619 469.1 363.447 472.716 363.447 472.716H386.531V447.406Z" fill="#E08828"/>
<path d="M467.188 400.681C478.034 400.681 455.784 449.353 402.384 449.353C366.228 449.353 335.913 434.891 335.913 389.556C335.913 361.466 353.713 338.659 390.147 347.837C427.138 357.572 408.225 400.681 467.188 400.681Z" fill="#7B93FF"/>
<path d="M421.575 443.791C378.187 443.791 382.637 410.416 343.978 412.641C358.162 456.584 421.575 443.791 421.575 443.791Z" fill="white"/>
<path d="M425.747 381.213C397.935 353.956 369.566 398.456 403.775 416.256C437.428 433.5 460.513 402.906 460.513 402.906C460.513 402.906 443.547 398.734 425.747 381.213Z" fill="#3856DC"/>
<path d="M358.997 376.206C362.837 376.206 365.95 373.093 365.95 369.253C365.95 365.413 362.837 362.3 358.997 362.3C355.157 362.3 352.044 365.413 352.044 369.253C352.044 373.093 355.157 376.206 358.997 376.206Z" fill="#3E4347"/>
</g>
<defs>
<filter id="filter0_d_2901_319" x="-4" y="0.5" width="613" height="479" filterUnits="userSpaceOnUse" color-interpolation-filters="sRGB">
<feFlood flood-opacity="0" result="BackgroundImageFix"/>
<feColorMatrix in="SourceAlpha" type="matrix" values="0 0 0 0 0 0 0 0 0 0 0 0 0 0 0 0 0 0 127 0" result="hardAlpha"/>
<feOffset dy="4"/>
<feGaussianBlur stdDeviation="2"/>
<feComposite in2="hardAlpha" operator="out"/>
<feColorMatrix type="matrix" values="0 0 0 0 0 0 0 0 0 0 0 0 0 0 0 0 0 0 0.25 0"/>
<feBlend mode="normal" in2="BackgroundImageFix" result="effect1_dropShadow_2901_319"/>
<feBlend mode="normal" in="SourceGraphic" in2="effect1_dropShadow_2901_319" result="shape"/>
</filter>
<clipPath id="clip0_2901_319">
<rect width="605" height="471" fill="white" transform="translate(0 0.5)"/>
</clipPath>
</defs>
</svg>
